<svg xmlns="http://www.w3.org/2000/svg" xmlns:xlink="http://www.w3.org/1999/xlink" width="100%" height="100%" version="1.1" viewBox="0 0 640 480" xml:space="preserve" style="fill-rule:evenodd;clip-rule:evenodd;stroke-linecap:round;stroke-linejoin:round;stroke-miterlimit:1.5"><g transform="matrix(0.96875,0,0,0.96875,10,7.5)"><rect width="640" height="480" x="0" y="0" style="fill:none;stroke:#000;stroke-width:1.03px"/></g><g><text x="294.351" y="243.38" transform="matrix(5.23708,0,0,5.23708,-1360.17,-1018.08)" style="font-family:'ArialMT','Arial',sans-serif;font-size:12px">clip space</text></g><g><path d="M0,-20.5L20.5,20.5L-20.5,20.5L0,-20.5Z" transform="matrix(2.98694e-17,-0.487805,0.804878,4.92846e-17,33.5,240)" style="fill:red"/></g><g><path d="M0,-20.5L20.5,20.5L-20.5,20.5L0,-20.5Z" transform="matrix(0.487805,0,0,0.804878,320,34)" style="fill:red"/></g><g><path d="M0,-20.5L20.5,20.5L-20.5,20.5L0,-20.5Z" transform="matrix(-0.487805,-5.97389e-17,9.85691e-17,-0.804878,320,444)" style="fill:red"/></g><g><path d="M0,-20.5L20.5,20.5L-20.5,20.5L0,-20.5Z" transform="matrix(2.98694e-17,0.487805,-0.804878,4.92846e-17,605.5,240)" style="fill:red"/></g><path d="M50,240L171,240" style="fill:red;stroke:red;stroke-width:1px"/><g><path d="M50,240L171,240" transform="matrix(0.975207,5.57934e-18,-5.72119e-18,1,422.24,-1.60294e-14)" style="fill:red;stroke:red;stroke-width:1.01px"/></g><g><path d="M50,240L171,240" transform="matrix(1.99565e-16,1.19835,-1,1.66533e-16,560,222.583)" style="fill:red;stroke:red;stroke-width:.91px"/></g><g><path d="M50,240L171,240" transform="matrix(7.84381e-17,1.28099,-1,6.12323e-17,560,-13.5496)" style="fill:red;stroke:red;stroke-width:.87px"/></g><g><text x="348.276" y="44.582" transform="matrix(3.31256,0,0,3.55072,-808.953,-108.716)" style="font-family:'Arial-BoldMT','Arial',sans-serif;font-weight:700;font-size:12px">+1</text></g><g><text x="349.782" y="44.582" transform="matrix(3.31256,0,0,3.55072,-808.953,299.705)" style="font-family:'Arial-BoldMT','Arial',sans-serif;font-weight:700;font-size:12px">-1</text></g><g><text x="348.276" y="44.582" transform="matrix(3.31256,0,0,3.55072,-572.625,137.049)" style="font-family:'Arial-BoldMT','Arial',sans-serif;font-weight:700;font-size:12px">+1</text></g><g><text x="349.782" y="44.582" transform="matrix(3.31256,0,0,3.55072,-1136.79,137.049)" style="font-family:'Arial-BoldMT','Arial',sans-serif;font-weight:700;font-size:12px">-1</text></g></svg>