<svg xmlns="http://www.w3.org/2000/svg" xmlns:xlink="http://www.w3.org/1999/xlink" width="100%" height="100%" version="1.1" viewBox="0 0 500 500" xml:space="preserve" style="fill-rule:evenodd;clip-rule:evenodd;stroke-linecap:round;stroke-linejoin:round;stroke-miterlimit:1.5"><g transform="matrix(1.06144,0,0,1.06667,-25.3595,-6.66841)"><rect width="150.739" height="149.984" x="99.261" y="100.016" style="fill:#ff0202;stroke:#000;stroke-width:.94px"/></g><g transform="matrix(1.06634,0,0,1.06667,134.154,-6.66841)"><rect width="150.739" height="149.984" x="99.261" y="100.016" style="fill:#04fe00;stroke:#000;stroke-width:.94px"/></g><g transform="matrix(1.06144,0,0,1.06678,-25.3595,173.305)"><rect width="150.739" height="149.984" x="99.261" y="100.016" style="fill:#ff0202;stroke:#000;stroke-width:.94px"/></g><g transform="matrix(1.06511,0,0,1.06678,134.46,173.305)"><rect width="150.739" height="149.984" x="99.261" y="100.016" style="fill:#04fe00;stroke:#000;stroke-width:.94px"/></g><g transform="matrix(1.06144,0,0,1.06678,-25.3595,-23.2604)"><rect width="150.739" height="149.984" x="174.631" y="284.277" style="fill:url(#_Linear1);stroke:#000;stroke-width:.94px"/></g><g transform="matrix(1.06144,0,0,1.06667,-25.3595,-6.66841)"><rect width="150.739" height="149.984" x="99.261" y="100.016" style="fill:#ff0202"/></g><g transform="matrix(1.06634,0,0,1.06667,134.154,-6.66841)"><rect width="150.739" height="149.984" x="99.261" y="100.016" style="fill:#04fe00"/></g><g transform="matrix(1.06144,0,0,1.06678,-25.3595,173.305)"><rect width="150.739" height="149.984" x="99.261" y="100.016" style="fill:#ff0202"/></g><g transform="matrix(1.06634,0,0,1.06678,134.154,173.305)"><rect width="150.739" height="149.984" x="99.261" y="100.016" style="fill:#04fe00"/></g><g transform="matrix(1.06389,0,0,1.06678,-25.7875,-23.2604)"><rect width="150.739" height="149.984" x="174.631" y="284.277" style="fill:url(#_Linear2)"/></g><g><path d="M99.261,78.488L99.261,461.294" transform="matrix(1,0,0,1.04491,-19.2611,-2.01295)" style="fill:none;stroke:#000;stroke-width:.41px;stroke-dasharray:4.07,4.07,0,0;stroke-dashoffset:.41"/></g><g><text x="86.789" y="68.998" transform="matrix(1,0,0,1,-21.2033,1.00216)" style="font-family:'ArialMT','Arial',sans-serif;font-size:20.833px">0.0</text></g><g><text x="86.789" y="68.998" transform="matrix(1,0,0,1,138.797,0.747846)" style="font-family:'ArialMT','Arial',sans-serif;font-size:20.833px">0.5</text></g><g><text x="80.996" y="68.998" transform="matrix(1,0,0,1,218.715,1.00216)" style="font-family:'ArialMT','Arial',sans-serif;font-size:20.833px">0.75</text></g><g><text x="80.996" y="68.998" transform="matrix(1,0,0,1,58.7154,1.00216)" style="font-family:'ArialMT','Arial',sans-serif;font-size:20.833px">0.25</text></g><g><path d="M99.261,78.488L99.261,461.294" transform="matrix(1,0,0,1.0531,301.478,-5.78917)" style="fill:none;stroke:#000;stroke-width:.41px;stroke-dasharray:4.06,4.06,0,0;stroke-dashoffset:.41"/></g><g><path d="M99.261,78.488L99.261,461.294" transform="matrix(1,0,0,1.0531,140.739,-5.78917)" style="fill:none;stroke:#000;stroke-width:.41px;stroke-dasharray:4.06,4.06,0,0;stroke-dashoffset:.41"/></g><g><path d="M99.261,78.488L99.261,461.294" transform="matrix(1,0,0,1.0531,221.108,-5.78917)" style="fill:none;stroke:#000;stroke-width:.41px;stroke-dasharray:4.06,4.06,0,0;stroke-dashoffset:.41"/></g><g><path d="M99.261,78.488L99.261,461.294" transform="matrix(1,0,0,1.0531,60.7389,-5.78917)" style="fill:none;stroke:#000;stroke-width:.41px;stroke-dasharray:4.06,4.06,0,0;stroke-dashoffset:.41"/></g><g><text x="86.789" y="68.998" transform="matrix(1,0,0,1,299.536,7.10543e-15)" style="font-family:'ArialMT','Arial',sans-serif;font-size:20.833px">1.0</text></g><path d="M170,465L160,470L170,475L170,465Z"/><path d="M310.369,465L320.369,470L310.369,475L310.369,465Z"/><path d="M168,470L312.369,470" style="fill:none;stroke:#000;stroke-width:.83px"/><defs><linearGradient id="_Linear1" x1="0" x2="1" y1="0" y2="0" gradientTransform="matrix(-150.739,1.84602e-14,-1.84602e-14,-150.739,325.369,359.269)" gradientUnits="userSpaceOnUse"><stop offset="0" style="stop-color:#04fe00;stop-opacity:1"/><stop offset="1" style="stop-color:#fd0000;stop-opacity:1"/></linearGradient><linearGradient id="_Linear2" x1="0" x2="1" y1="0" y2="0" gradientTransform="matrix(-150.739,1.84602e-14,-1.84602e-14,-150.739,325.369,359.269)" gradientUnits="userSpaceOnUse"><stop offset="0" style="stop-color:#04fe00;stop-opacity:1"/><stop offset="1" style="stop-color:#fd0000;stop-opacity:1"/></linearGradient></defs></svg>