<svg xmlns="http://www.w3.org/2000/svg" xmlns:xlink="http://www.w3.org/1999/xlink" width="100%" height="100%" version="1.1" viewBox="0 0 520 300" xml:space="preserve" style="fill-rule:evenodd;clip-rule:evenodd;stroke-linecap:round;stroke-linejoin:round;stroke-miterlimit:1.5"><g transform="matrix(1,0,0,1,-53,-82)"><rect width="128" height="128" x="249" y="213" style="fill:#ffd500;stroke:#0d0d0d;stroke-width:1px"/></g><g transform="matrix(1,0,0,1,-181,-82)"><rect width="128" height="128" x="249" y="213" style="fill:#bfff00;stroke:#0d0d0d;stroke-width:1px"/></g><g transform="matrix(1,0,0,1,75,-82)"><rect width="128" height="128" x="249" y="213" style="fill:#ff9400;stroke:#0d0d0d;stroke-width:1px"/></g><g><g><path d="M128,213L140,239L116,239L128,213Z" transform="matrix(1,0,0,1,4,-109) matrix(-0.692308,-8.47832e-17,8.47832e-17,-0.692308,216.615,373.462)"/></g><path d="M128,208L128,172" transform="matrix(1,0,0,1,4,-109)" style="fill:none;stroke:#000;stroke-width:1.5px"/></g><g><text x="83.21" y="133.467" transform="matrix(1,0,0,1,3.86018,-84)" style="font-family:'ArialMT','Arial',sans-serif;font-size:36px">0.166</text></g><g><g><path d="M128,213L140,239L116,239L128,213Z" transform="matrix(1,0,0,1,258.787,-109) matrix(-0.692308,-8.47832e-17,8.47832e-17,-0.692308,216.615,373.462)"/></g><path d="M128,208L128,172" transform="matrix(1,0,0,1,258.787,-109)" style="fill:none;stroke:#000;stroke-width:1.5px"/></g><g><g><path d="M128,213L140,239L116,239L128,213Z" transform="matrix(1,0,0,1,130.787,-109) matrix(-0.692308,-8.47832e-17,8.47832e-17,-0.692308,216.615,373.462)"/></g><path d="M128,208L128,172" transform="matrix(1,0,0,1,130.787,-109)" style="fill:none;stroke:#000;stroke-width:1.5px"/></g><g><text x="83.21" y="133.467" transform="matrix(1,0,0,1,258.647,-84)" style="font-family:'ArialMT','Arial',sans-serif;font-size:36px">0.833</text></g><g><text x="103.232" y="133.467" transform="matrix(1,0,0,1,130.647,-84)" style="font-family:'ArialMT','Arial',sans-serif;font-size:36px">0.5</text></g></svg>